<?xml version="1.0" encoding="UTF-8"?>
<svg width="6px" height="10px" viewBox="0 0 6 10" version="1.1" xmlns="http://www.w3.org/2000/svg" xmlns:xlink="http://www.w3.org/1999/xlink">
    <!-- Generator: Sketch 57.1 (83088) - https://sketch.com -->
    <title>Shape</title>
    <desc>Created with Sketch.</desc>
    <g id="Page-1" stroke="none" stroke-width="1" fill="none" fill-rule="evenodd">
        <g id="1440-–-homepage-final" transform="translate(-202.000000, -749.000000)" fill="#FFFFFF" fill-rule="nonzero">
            <g id="Group-15" transform="translate(48.000000, 234.000000)">
                <g id="Group-2" transform="translate(0.000000, 496.000000)">
                    <g id="Group-6" transform="translate(61.000000, 15.000000)">
                        <path d="M96.5007205,6.21953785 C96.3669649,6.07898425 96.1854034,6 95.9960677,6 C95.806732,6 95.6251705,6.07898425 95.4914149,6.21953785 L91.2098582,10.7103131 C91.0291552,10.8994183 90.958365,11.1752734 91.0241536,11.4339665 C91.0899422,11.6926595 91.2823148,11.8948889 91.5288064,11.9644767 C91.7752981,12.0340645 92.0384608,11.9604388 92.2191638,11.7713336 L95.8950229,7.91585335 C95.9217982,7.88769867 95.9581539,7.87187555 95.9960677,7.87187555 C96.0339815,7.87187555 96.0703372,7.88769867 96.0971124,7.91585335 L99.7729716,11.7713336 C99.9520842,11.9659538 100.217379,12.0440636 100.46689,11.9756417 C100.716401,11.9072198 100.911299,11.702914 100.976674,11.4412493 C101.04205,11.1795846 100.967729,10.901282 100.782277,10.7133069 L96.5007205,6.21953785 Z" id="Shape" transform="translate(96.000000, 9.000000) rotate(-270.000000) translate(-96.000000, -9.000000) "></path>
                    </g>
                </g>
            </g>
        </g>
    </g>
</svg>